<svg xmlns="http://www.w3.org/2000/svg" version="1.1" xmlns:xlink="http://www.w3.org/1999/xlink" width="1000" height="1000"><metadata><rdf:RDF xmlns:rdf="http://www.w3.org/1999/02/22-rdf-syntax-ns#" xmlns:dc="http://purl.org/dc/elements/1.1/"><rdf:Description><dc:creator>RealFaviconGenerator</dc:creator><dc:source>https://realfavicongenerator.net</dc:source></rdf:Description></rdf:RDF></metadata><style>
    #light-icon {
      display: inline;
    }
    #dark-icon {
      display: none;
    }

    @media (prefers-color-scheme: dark) {
      #light-icon {
        display: none;
      }
      #dark-icon {
        display: inline;
      }
    }
  </style><g id="light-icon"><svg xmlns="http://www.w3.org/2000/svg" version="1.1" xmlns:xlink="http://www.w3.org/1999/xlink" width="1000" height="1000"><g clip-path="url(#SvgjsClipPath1263)"><rect width="1000" height="1000" fill="#ffffff"></rect><g transform="matrix(3.3333333333333335,0,0,3.3333333333333335,0,0)"><svg xmlns="http://www.w3.org/2000/svg" viewBox="0 0 300 300" width="300" height="300"><defs>
    <clipPath id="sq">
      <rect x="0" y="0" width="300" height="300" rx="64"></rect>
    </clipPath>
  <clipPath id="SvgjsClipPath1263"><rect width="1000" height="1000" x="0" y="0" rx="500" ry="500"></rect></clipPath></defs><rect x="0" y="0" width="300" height="300" rx="64" fill="#1A3D5C"></rect><g clip-path="url(#sq)">
    <circle cx="150" cy="150" r="145" fill="#3a4f6e"></circle>
    <circle cx="150" cy="150" r="122" fill="#4a6080"></circle>
    <ellipse cx="150" cy="205" rx="58" ry="54" fill="#c8a060"></ellipse>
    <circle cx="150" cy="112" r="40" fill="#c8a060"></circle>
    <ellipse cx="150" cy="196" rx="27" ry="31" fill="#faf6f0"></ellipse>
    <circle cx="150" cy="128" r="26" fill="#faf6f0"></circle>
  </g></svg></g></g></svg></g><g id="dark-icon"><svg xmlns="http://www.w3.org/2000/svg" version="1.1" xmlns:xlink="http://www.w3.org/1999/xlink" width="1000" height="1000"><g clip-path="url(#SvgjsClipPath1264)"><rect width="1000" height="1000" fill="#ffffff"></rect><g transform="matrix(3.3333333333333335,0,0,3.3333333333333335,0,0)"><svg xmlns="http://www.w3.org/2000/svg" viewBox="0 0 300 300" width="300" height="300"><defs>
    <clipPath id="sq">
      <rect x="0" y="0" width="300" height="300" rx="64"></rect>
    </clipPath>
  <clipPath id="SvgjsClipPath1264"><rect width="1000" height="1000" x="0" y="0" rx="500" ry="500"></rect></clipPath></defs><rect x="0" y="0" width="300" height="300" rx="64" fill="#1A3D5C"></rect><g clip-path="url(#sq)">
    <circle cx="150" cy="150" r="145" fill="#3a4f6e"></circle>
    <circle cx="150" cy="150" r="122" fill="#4a6080"></circle>
    <ellipse cx="150" cy="205" rx="58" ry="54" fill="#c8a060"></ellipse>
    <circle cx="150" cy="112" r="40" fill="#c8a060"></circle>
    <ellipse cx="150" cy="196" rx="27" ry="31" fill="#faf6f0"></ellipse>
    <circle cx="150" cy="128" r="26" fill="#faf6f0"></circle>
  </g></svg></g></g></svg></g></svg>